<svg xmlns="http://www.w3.org/2000/svg" width="960" height="640" viewBox="0 0 960 640" fill="none">
  <defs>
    <linearGradient id="sky" x1="0" y1="0" x2="0" y2="1">
      <stop offset="0%" stop-color="#E8B48A"/>
      <stop offset="45%" stop-color="#7F9E8A"/>
      <stop offset="100%" stop-color="#0B1F33"/>
    </linearGradient>
    <linearGradient id="steam" x1="0" y1="1" x2="0" y2="0">
      <stop offset="0%" stop-color="#F3EFE6" stop-opacity="0.55"/>
      <stop offset="100%" stop-color="#F3EFE6" stop-opacity="0"/>
    </linearGradient>
  </defs>
  <rect width="960" height="640" fill="url(#sky)"/>
  <circle cx="720" cy="150" r="70" fill="#F3EFE6" opacity="0.45"/>
  <path d="M0 390C160 340 280 430 420 390C560 350 680 420 960 360V640H0V390Z" fill="#0B1F33" opacity="0.55"/>
  <path d="M0 440C180 400 300 480 460 440C620 400 760 470 960 420V640H0V440Z" fill="#071525" opacity="0.7"/>
  <ellipse cx="360" cy="470" rx="90" ry="18" fill="#071525" opacity="0.35"/>
  <path d="M300 470V360H420V470" fill="#1A1714"/>
  <path d="M310 360H410V300H310V360Z" fill="#2A221C"/>
  <path d="M320 300C320 270 400 270 400 300" fill="none" stroke="url(#steam)" stroke-width="10" stroke-linecap="round"/>
  <path d="M340 290C340 255 390 255 390 290" fill="none" stroke="url(#steam)" stroke-width="8" stroke-linecap="round"/>
  <circle cx="180" cy="180" r="3" fill="#F3EFE6" opacity="0.5"/>
  <circle cx="520" cy="120" r="2" fill="#F3EFE6" opacity="0.4"/>
  <path d="M820 500C840 470 880 470 900 500" fill="none" stroke="#D4C4A8" stroke-width="3" opacity="0.5"/>
</svg>
