<svg xmlns="http://www.w3.org/2000/svg" width="960" height="640" viewBox="0 0 960 640" fill="none">
  <defs>
    <linearGradient id="night" x1="0" y1="0" x2="1" y2="1">
      <stop offset="0%" stop-color="#071525"/>
      <stop offset="55%" stop-color="#0B1F33"/>
      <stop offset="100%" stop-color="#1A2F28"/>
    </linearGradient>
    <radialGradient id="glow" cx="0.35" cy="0.55" r="0.45">
      <stop offset="0%" stop-color="#C97B4B" stop-opacity="0.55"/>
      <stop offset="100%" stop-color="#C97B4B" stop-opacity="0"/>
    </radialGradient>
  </defs>
  <rect width="960" height="640" fill="url(#night)"/>
  <rect width="960" height="640" fill="url(#glow)"/>
  <circle cx="760" cy="110" r="28" fill="#D4C4A8" opacity="0.7"/>
  <circle cx="140" cy="90" r="2" fill="#F3EFE6" opacity="0.7"/>
  <circle cx="220" cy="140" r="1.5" fill="#F3EFE6" opacity="0.55"/>
  <circle cx="520" cy="70" r="2" fill="#F3EFE6" opacity="0.6"/>
  <path d="M0 470C140 430 250 510 390 470C530 430 660 510 960 450V640H0V470Z" fill="#040C16"/>
  <rect x="120" y="360" width="70" height="160" fill="#102638"/>
  <rect x="210" y="300" width="55" height="220" fill="#163249"/>
  <rect x="280" y="340" width="80" height="180" fill="#102638"/>
  <ellipse cx="560" cy="500" rx="100" ry="20" fill="#000" opacity="0.35"/>
  <path d="M490 500V360H630V500" fill="#1A1714"/>
  <path d="M505 360H615V290H505V360Z" fill="#2C211A"/>
  <path d="M515 290C515 250 610 250 610 290" fill="none" stroke="#E0A07A" stroke-width="8" stroke-linecap="round" opacity="0.55"/>
  <path d="M535 278C535 245 590 245 590 278" fill="none" stroke="#E0A07A" stroke-width="6" stroke-linecap="round" opacity="0.4"/>
  <path d="M700 520C760 470 860 470 920 520" fill="none" stroke="#4A6D8C" stroke-width="4" opacity="0.45"/>
</svg>
